<svg xmlns="http://www.w3.org/2000/svg" width="1280" height="640" viewBox="0 0 1280 640" role="img" aria-label="Fileman social preview showing a local-first manifest-driven file organizer with review before apply">
  <defs>
    <linearGradient id="bg" x1="0%" y1="0%" x2="100%" y2="100%">
      <stop offset="0%" stop-color="#132030" />
      <stop offset="100%" stop-color="#244157" />
    </linearGradient>
    <linearGradient id="card" x1="0%" y1="0%" x2="0%" y2="100%">
      <stop offset="0%" stop-color="#ffffff" />
      <stop offset="100%" stop-color="#eef5f8" />
    </linearGradient>
    <marker id="arrow" markerWidth="12" markerHeight="12" refX="9" refY="6" orient="auto">
      <path d="M0,0 L12,6 L0,12 Z" fill="#8fd3b6" />
    </marker>
  </defs>

  <rect width="1280" height="640" fill="url(#bg)" />
  <circle cx="1030" cy="90" r="170" fill="#8fd3b6" opacity="0.12" />
  <circle cx="180" cy="560" r="220" fill="#7bb6db" opacity="0.1" />

  <g transform="translate(76 70)">
    <rect width="88" height="88" rx="22" fill="#f2f5f7" opacity="0.98" />
    <path d="M23 28h42v10H23z" fill="#16212f" />
    <path d="M23 45h30v10H23z" fill="#16212f" opacity="0.84" />
    <path d="M23 62h20v10H23z" fill="#16212f" opacity="0.7" />
    <circle cx="60" cy="65" r="9" fill="#8fd3b6" />
  </g>

  <text x="190" y="122" font-family="Arial, Helvetica, sans-serif" font-size="60" font-weight="700" fill="#f2f5f7">Fileman</text>
  <text x="190" y="176" font-family="Arial, Helvetica, sans-serif" font-size="27" fill="#d8e7ef">Manifest-driven file organization with local review before apply.</text>
  <text x="190" y="214" font-family="Arial, Helvetica, sans-serif" font-size="21" fill="#9fc2d4">Messy folders in. Safe plans, organized output, and rollback-ready moves out.</text>

  <g transform="translate(120 292)">
    <rect x="0" y="0" width="220" height="170" rx="28" fill="url(#card)" />
    <text x="28" y="36" font-family="Arial, Helvetica, sans-serif" font-size="18" font-weight="700" fill="#587387">MIXED INBOX</text>
    <rect x="28" y="58" width="76" height="56" rx="12" fill="#ffd98f" />
    <rect x="118" y="70" width="72" height="44" rx="12" fill="#9cc0d8" />
    <rect x="58" y="126" width="94" height="26" rx="13" fill="#f0a7a0" />
    <text x="40" y="102" font-family="Arial, Helvetica, sans-serif" font-size="14" font-weight="700" fill="#6d4c0f">photos</text>
    <text x="132" y="96" font-family="Arial, Helvetica, sans-serif" font-size="14" font-weight="700" fill="#163447">notes</text>
    <text x="78" y="144" font-family="Arial, Helvetica, sans-serif" font-size="14" font-weight="700" fill="#6e2c27">screen</text>
  </g>

  <g transform="translate(488 262)">
    <path d="M0 115h84" fill="none" stroke="#8fd3b6" stroke-width="10" stroke-linecap="round" marker-end="url(#arrow)" />
    <path d="M306 115h84" fill="none" stroke="#8fd3b6" stroke-width="10" stroke-linecap="round" marker-end="url(#arrow)" />
    <rect x="84" y="0" width="306" height="230" rx="30" fill="url(#card)" />
    <rect x="110" y="24" width="254" height="44" rx="16" fill="#16212f" />
    <text x="134" y="53" font-family="Arial, Helvetica, sans-serif" font-size="20" font-weight="700" fill="#f2f5f7">manifest review</text>
    <path d="M116 96h64v10H116zM116 124h34v10H116z" fill="#16212f" opacity="0.84" />
    <path d="M198 96h74v10H198zM198 124h92v10H198z" fill="#3a5d73" opacity="0.8" />
    <rect x="298" y="90" width="54" height="24" rx="12" fill="#e9f7f0" />
    <text x="312" y="106" font-family="Arial, Helvetica, sans-serif" font-size="12" font-weight="700" fill="#1f4d3a">review</text>
    <path d="M116 160h64v10H116zM116 188h34v10H116z" fill="#16212f" opacity="0.84" />
    <path d="M198 160h102v10H198zM198 188h86v10H198z" fill="#3a5d73" opacity="0.8" />
    <rect x="298" y="154" width="54" height="24" rx="12" fill="#fff4dc" />
    <text x="312" y="170" font-family="Arial, Helvetica, sans-serif" font-size="12" font-weight="700" fill="#7d5a13">dry-run</text>
  </g>

  <g transform="translate(932 292)">
    <rect x="0" y="0" width="230" height="170" rx="28" fill="url(#card)" />
    <text x="28" y="36" font-family="Arial, Helvetica, sans-serif" font-size="18" font-weight="700" fill="#587387">ORGANIZED</text>
    <rect x="28" y="58" width="174" height="42" rx="16" fill="#16212f" />
    <text x="48" y="85" font-family="Arial, Helvetica, sans-serif" font-size="16" font-weight="700" fill="#f2f5f7">organized/work</text>
    <rect x="46" y="114" width="142" height="24" rx="12" fill="#eef8f3" />
    <text x="58" y="130" font-family="Arial, Helvetica, sans-serif" font-size="13" font-weight="700" fill="#1f4d3a">reversible and traceable</text>
  </g>

  <rect x="76" y="542" width="1128" height="52" rx="22" fill="#ffffff" opacity="0.12" />
  <text x="112" y="575" font-family="Arial, Helvetica, sans-serif" font-size="20" fill="#f2f5f7">Local-first workflow for photos, documents, audio, and screenshots.</text>
</svg>
